<svg width="26" height="23" viewBox="0 0 26 23" fill="none" xmlns="http://www.w3.org/2000/svg">
<g clip-path="url(#clip0_24196_690)" filter="url(#filter0_d_24196_690)">
<path d="M15.6 0.200056C17.4 -0.299944 18.8 0.500056 19.4 1.40006C20.1 1.20006 20.8 0.900056 21.5 0.700056C21.5 1.60006 20.9 2.20006 20.6 2.50006C21.3 2.60006 22 1.90006 22 1.90006C21.8 2.90006 20.9 3.70006 20.3 3.90006C20.1 10.7001 17 15.1001 9.7 15.0001C9.1 15.0001 9.8 15.0001 9.2 15.0001C8.8 15.0001 4.8 14.5001 4 13.1001C6.4 13.3001 8.1 12.7001 9 11.9001C8 11.6001 6.1 11.5001 5.8 9.00006C6.2 9.10006 6.4 9.20006 7.1 9.10006C5.8 8.30006 4.4 7.50006 4.5 5.30006C4.8 5.60006 5.6 5.80006 5.9 5.80006C5.1 5.60006 3.8 2.50006 4.9 0.900056C6.8 2.80006 8.9 4.50006 12.5 4.70006C12.7 2.30006 13.7 0.800056 15.6 0.200056Z" fill="#83B3D3"/>
</g>
<defs>
<filter id="filter0_d_24196_690" x="0" y="0" width="26" height="23" filterUnits="userSpaceOnUse" color-interpolation-filters="sRGB">
<feFlood flood-opacity="0" result="BackgroundImageFix"/>
<feColorMatrix in="SourceAlpha" type="matrix" values="0 0 0 0 0 0 0 0 0 0 0 0 0 0 0 0 0 0 127 0" result="hardAlpha"/>
<feOffset dy="4"/>
<feGaussianBlur stdDeviation="2"/>
<feComposite in2="hardAlpha" operator="out"/>
<feColorMatrix type="matrix" values="0 0 0 0 0 0 0 0 0 0 0 0 0 0 0 0 0 0 0.25 0"/>
<feBlend mode="normal" in2="BackgroundImageFix" result="effect1_dropShadow_24196_690"/>
<feBlend mode="normal" in="SourceGraphic" in2="effect1_dropShadow_24196_690" result="shape"/>
</filter>
<clipPath id="clip0_24196_690">
<rect width="18" height="15" fill="white" transform="translate(4)"/>
</clipPath>
</defs>
</svg>
